# xmcd
#
# Track frame offsets: 
#        150
#        18906
#        35319
#        51763
#        67518
#        83921
#        105036
#        120347
#        139840
#        153761
#        173267
#        184543
#        202460
#        214679
#        227460
#        242344
#
# Disc length: 3426 seconds
#
# Revision: 3
# Processed by: cddbd v1.5.2PL0 Copyright (c) Steve Scherf et al.
# Submitted via: ExactAudioCopy v1.0b4
#
DISCID=b20d6010
DTITLE=Various Artist - Country Outlaws: Renegade Country Music CD1
DYEAR=2003
DGENRE=Country
TTITLE0=Steve Young - Montgomery In The Rain
TTITLE1=Steve Young - Seven Bridges Road
TTITLE2=Steve Young - Lonesome, On'ry and Mean
TTITLE3=John Prine - Speed Of The Sound Of Loneliness
TTITLE4=John Prine - Christmas In Prison
TTITLE5=John Prine - Sam Stone
TTITLE6=Chip Taylor - (I Want) The Real Thing
TTITLE7=Chip Taylor - Son Of A Rotten Gambler
TTITLE8=Chip Taylor - I Wasn't Born In Tennessee
TTITLE9=Jerry Jeff Walker - Mr. Bojangles
TTITLE10=Jerry Jeff Walker - Gypsy Songman
TTITLE11=Jerry Jeff Walker - Up Against The Wall Redneck Mother (Live)
TTITLE12=Billy Joe Shaver - Old Five And Dimers Like Me
TTITLE13=Billy Joe Shaver - Hardworkin' Man
TTITLE14=Rodney Crowell - Couldn't Leave You If I Tried
TTITLE15=Rodney Crowell - She's Crazy For Leaving
EXTD=YEAR: 2003
EXTT0=
EXTT1=
EXTT2=
EXTT3=
EXTT4=
EXTT5=
EXTT6=
EXTT7=
EXTT8=
EXTT9=
EXTT10=
EXTT11=
EXTT12=
EXTT13=
EXTT14=
EXTT15=
PLAYORDER=
